<?xml version="1.0" encoding="UTF-8" standalone="no" ?>
<!-- Generator: Adobe Illustrator 19.0.0, SVG Export Plug-In . SVG Version: 6.00 Build 0)  -->
<svg version="1.1" id="Layer_1" x="0px" y="0px" viewBox="0 0 500 550" style="enable-background: new 0 0 500 500" xml:space="preserve" sodipodi:docname="vusa_logo.svg" inkscape:version="1.1.2 (1:1.1+202202050950+0a00cf5339)"
   xmlns:inkscape="http://www.inkscape.org/namespaces/inkscape"
   xmlns:sodipodi="http://sodipodi.sourceforge.net/DTD/sodipodi-0.dtd"
   xmlns="http://www.w3.org/2000/svg"
   xmlns:svg="http://www.w3.org/2000/svg">
   <style type="text/css" id="style342">
    .st0 {
      fill: #ff0000;
    }
    .st1 {
      fill: #ffffff;
    }
    .st2 {
      fill: #ffe500;
    }
   </style>

   <rect name="horsemanBg" x="155" y="171" width="188" height="127" class="st0" id="rect345" stroke-width="6" stroke="black" />
   <path name="horsemanShape" d="m 209.6595,294.91751 53.71437,-0.0728 0.70202,-2.07921 c 0.38576,-1.14282 1.81777,-4.3014 3.18196,-7.01929 5.4279,-10.8123 5.37958,-12.52272 -0.52905,-18.69864 l -2.78857,-2.91497 -1.3752,0.22586 c -2.29682,0.37726 -10.90838,0.28083 -14.87205,-0.16664 -5.08114,-0.57352 -4.97007,-0.58114 -5.07859,0.34597 -0.13142,1.13012 -1.54054,1.93965 -4.6038,2.64345 -2.81316,0.64542 -6.61827,2.06315 -9.77311,3.63907 l -1.93818,0.9677 v -1.52686 c 0,-3.5071 1.06065,-5.32832 4.47747,-7.685 2.64528,-1.8246 2.64359,-1.84407 -0.24163,-2.08007 -1.30314,-0.10659 -5.3143,-0.6412 -8.9134,-1.18764 -9.69934,-1.47187 -8.7735,-1.62245 -13.41629,2.18326 -6.38682,5.23528 -6.20708,4.93329 -5.28887,8.88619 0.19331,0.83151 0.16618,0.83744 -5.97136,1.29846 l -2.50369,0.18778 0.15685,-1.54545 c 0.27301,-2.68997 0.72151,-4.66683 1.27771,-5.62863 l 0.53922,-0.93133 h -3.47362 -3.47277 l 0.18483,-1.21725 c 0.10258,-0.66996 0.65962,-3.13829 1.23871,-5.48652 l 1.05301,-4.26841 2.74702,-1.76962 c 3.16415,-2.03778 6.8031,-4.10094 10.50395,-5.95431 l 2.58848,-1.29675 4.87764,0.24277 c 2.68344,0.13281 5.59831,0.31637 6.47923,0.40688 1.9475,0.20047 2.26461,-0.24024 1.95514,-2.71704 -0.10852,-0.86703 -0.21027,-2.50302 -0.22553,-3.63652 -0.0271,-1.95741 -0.32641,-2.77118 -0.76136,-2.06907 -0.35779,0.57691 -3.11924,1.68842 -4.20193,1.6918 -3.82123,0.0103 -5.43638,-2.57239 -7.52462,-12.03041 -1.20987,-5.48058 -2.98441,-10.93494 -4.45203,-13.68412 l -1.11067,-2.08007 0.75542,-0.1641 c 0.41544,-0.0897 0.90126,-0.20725 1.0793,-0.26055 0.17805,-0.0533 0.79528,0.008 1.37182,0.13873 l 1.0471,0.2352 -0.17636,-1.04553 c -0.0967,-0.57522 -0.24333,-1.28832 -0.32557,-1.58521 -0.1984,-0.71226 1.37265,-0.45764 3.64573,0.59126 1.38538,0.63952 2.01871,0.73764 5.16845,0.80106 8.61581,0.17427 18.00569,5.35118 23.42343,12.91354 1.46846,2.05045 4.09169,3.41996 5.67886,2.96571 1.18105,-0.33834 1.15816,-0.20978 0.62062,-3.39967 -0.26708,-1.59114 -0.50701,-4.17114 -0.53075,-5.73436 l -0.045,-2.84053 -7.6094,-3.41405 c -4.67926,-2.09868 -7.60857,-3.56631 -7.60688,-3.81078 0.002,-0.21909 0.11023,-4.09501 0.24165,-8.61297 0.26876,-9.23976 0.26114,-9.28714 -1.46763,-9.16279 -1.69822,0.12265 -2.94118,-1.00662 -2.94118,-2.67135 0,-1.88213 0.71559,-2.57916 2.67411,-2.60706 1.27008,-0.0178 1.75419,-0.17086 2.48843,-0.78839 0.50193,-0.42041 1.25735,-0.83997 1.67958,-0.93218 0.42222,-0.0922 0.95212,-0.22584 1.17766,-0.29691 0.22552,-0.0719 1.09202,0.0837 1.9263,0.34597 2.1052,0.66065 2.20609,0.56677 2.93863,-2.70265 0.99112,-4.43084 1.98226,-4.39699 3.49058,0.12011 0.88855,2.6612 0.91482,2.70097 1.82287,2.70097 0.50616,0 6.85991,-0.19454 14.11831,-0.43225 l 13.19841,-0.43141 5.45672,1.53447 c 5.09979,1.43465 5.46097,1.58097 5.54152,2.24247 0.0958,0.78838 0.47649,0.63781 -6.81159,2.67813 l -3.56603,0.99815 h -14.29043 c -13.36373,0 -14.2989,0.0321 -14.43116,0.50078 -0.078,0.27576 -0.29591,1.46849 -0.48412,2.6502 -0.71557,4.49343 -1.7313,4.47229 -3.43208,-0.0711 -0.90889,-2.42858 -1.33535,-2.89891 -1.9458,-2.14943 -0.25351,0.31129 0.56466,10.72686 0.93007,11.84938 0.10514,0.32059 8.60478,3.83954 9.27035,3.83784 0.48327,-8.5e-4 0.4536,-0.42548 -0.0585,-0.8493 -3.21926,-2.66541 -3.48889,-10.19478 -0.44428,-12.38904 1.95004,-1.40505 8.60649,-1.7544 11.63074,-0.61159 l 1.43541,0.54306 0.0839,2.54025 c 0.10004,3.0351 -0.25096,4.90621 -1.354,7.23415 l -0.82073,1.73155 0.57146,0.90003 c 0.6876,1.08445 0.42392,1.07768 6.88619,0.16834 6.06888,-0.85435 5.51524,-1.11997 6.40462,3.07062 2.2061,10.39188 1.37182,20.70934 -2.08824,25.83465 -0.44257,0.65642 -0.88345,1.32213 -0.97925,1.47948 -0.11277,0.18525 1.25989,0.29352 3.88906,0.30622 5.94594,0.0278 9.65102,1.40842 13.5494,5.04664 l 1.81609,1.69517 1.73469,-1.27476 c 4.21718,-3.09769 8.38095,-4.77088 11.87237,-4.77088 6.76242,0 9.1474,3.39459 8.45303,12.02955 -0.34338,4.26165 -0.10091,5.2708 1.69823,7.06581 0.7037,0.70209 1.20987,1.3898 1.12424,1.52769 -0.31626,0.51092 -2.2239,0.92035 -3.44142,0.73762 l -1.24123,-0.18524 0.54517,2.07076 c 1.02674,3.90213 0.7461,4.65161 -1.04794,2.80248 -0.95808,-0.98719 -2.36549,-1.98196 -2.80468,-1.98196 -0.0654,0 -0.20263,0.71818 -0.30606,1.59707 -0.47734,4.0527 -1.69315,5.29364 -2.92761,2.98856 -0.50956,-0.95163 -1.64907,-2.6113 -2.53251,-3.68813 -2.68429,-3.27447 -3.20487,-6.14885 -1.93902,-10.71333 1.11915,-4.03665 0.0677,-5.27081 -3.11244,-3.6526 -6.56911,3.34385 -7.76288,16.62195 -2.02806,22.55764 l 1.16921,1.2105 -3.27437,10.46462 c -2.50623,8.00899 -3.4253,10.58645 -3.9162,10.98317 -0.73423,0.59383 -0.808,1.47611 -0.28149,3.35399 l 0.36034,1.28408 h 27.81779 m -44.90181,-109.2362 c 0.51635,0.0636 1.29211,0.0627 1.72367,-0.003 0.43155,-0.065 0.01,-0.11673 -0.93856,-0.11587 -0.9479,0.002 -1.3006,0.0559 -0.78511,0.11925 m -37.1975,14.97667 c 0,0.55154 0.0593,0.77739 0.13141,0.50162 0.0721,-0.27574 0.0721,-0.72663 0,-1.00238 -0.0721,-0.27577 -0.13141,-0.0507 -0.13141,0.50076 m 45.09348,46.61928 c 0.43664,0.066 1.0827,0.0644 1.43626,-0.003 0.3527,-0.0685 -0.005,-0.12267 -0.79358,-0.12012 -0.79021,0.002 -1.07931,0.0575 -0.64268,0.1235 m -71.45807,5.63369 c -5.49911,2.62229 -6.6259,3.65853 -6.30457,5.79696 0.25011,1.66811 -0.0222,1.82291 5.11504,-2.89806 2.48588,-2.28477 4.35792,-4.15168 4.15868,-4.1483 -0.19924,0.003 -1.53545,0.56507 -2.96915,1.2494 m 74.98001,18.10397 c 1.15393,2.65021 1.18699,2.30084 -0.55448,5.83163 -1.43117,2.90059 -3.31676,8.15701 -4.20192,11.7115 -0.17381,0.69701 -0.51888,1.3069 -0.79443,1.40419 -2.33242,0.82307 -2.04839,4.69305 0.35101,4.77511 l 1.08184,0.0373 0.5494,-2.14859 c 0.30184,-1.18172 1.58123,-4.28024 2.84283,-6.88563 4.18921,-8.65186 4.45034,-13.09115 0.9072,-15.41231 l -0.67149,-0.43987 0.49004,1.12675" fill="#ffffff" id="path1099" />
   <g name="horsemanOutline" fill="#000">
      <path id="XMLID_119_" d="M263.7,226.6c-0.2-1.2-0.6-3.7-0.6-3.7s-1.6,0.3-2.7,0.4c-0.6,0.1-0.9,0.4-0.9,0.4l-0.4-2.7   c0,0,0.5,0.1,1,0.1c1-0.2,2.5-0.4,2.5-0.4l-0.8-4.9c0,0-1.4,0.2-2.5,0.3c-0.6,0.1-1.1,0.4-1.1,0.4l-0.4-2.7c0,0,0.5,0.1,1.2,0   c1.1-0.1,2.6-0.3,2.6-0.3s-0.4-2.7-0.6-4.2c-0.1-0.5-0.4-0.9-0.4-0.9l3-0.4c0,0-0.1,0.4-0.1,0.9c0.2,1.4,0.5,4.2,0.5,4.2   s1.5-0.3,2.4-0.4c0.5-0.1,1-0.4,1-0.4l0.4,2.7c0,0-0.6-0.1-1.2-0.1c-1,0.1-2.2,0.3-2.2,0.3l0.7,4.8c0,0,1.6-0.3,2.6-0.4   c0.5-0.1,0.8-0.3,0.8-0.3l0.4,2.7c0,0-0.6-0.1-1.1-0.1c-1.1,0.1-2.5,0.3-2.5,0.3s0.5,2.5,0.7,3.8c0.1,0.5,0.3,0.8,0.3,0.8l-2.7,0.4   C263.7,227.4,263.8,227,263.7,226.6" />
      <path id="XMLID_148_" d="M283.7,294.9l-1.1-3.7l0.1-1.3c0,0,1.3-0.4,1.6-0.8c0.3-0.4,6-19,6-19l0,0l0,0c0,0-1.7-1.5-2.6-3.8   c-0.8-2.1-2-4.3-2-7.7c0-0.3,0-0.7,0-1c0.3-4,0.5-5.5,1.2-7c0.7-1.5,1.1-2.5,1.1-2.5l0,0l0-0.1c0,0-1.4,0.9-3.1,0.9   c-1.7,0-4.3,0.2-4.3,0.2l0,0.1h0l0.5,4c0,0,0,0.2,0,0.4c0,0.4-0.1,1.1-0.4,1.3c-0.6,0.4-1.3,0.5-1.5-0.2c-0.2-0.7-0.5-1.4-0.6-2.7   c-0.1-1.3-0.4-2.6-0.4-2.6h-6.5l0,0.1h0c0,0,0.4,3,0.4,4.2c0,0.2,0,0.3,0,0.4c-0.2,0.5-0.5,1.7-0.9,1.5c-0.4-0.2-1.1-0.3-1.1-1.3   c0-1-0.3-4.9-0.3-4.9s-3.2-0.1-6.5-0.8c-3.3-0.8-5.9-1.3-5.9-1.3s-1.4,4.5-1.9,7.8c-0.4,3.4-0.5,4.6-0.5,4.6s-4-4-4.7-4.7   c-0.7-0.7-0.9-0.8-0.9-0.8l-2.7,5.4l-3.6-4.8c0,0-0.4,1.3-0.6,2.9c-0.1,0.6-0.1,1.1-0.1,1.5c0,0.9,0.1,1.6,0.3,3   c0,0.1,6.8,1.3,12.6,1c5.7-0.3,6.7-0.4,8.8-0.9c2.8-0.7,5.7-1.8,5.7-1.8l0,0l0,0l-2.1-2.8c1.2,1.1,10.7,9.4,12.3,11   c1.3,1.3,3.4,3,3.4,6.9c0,1.1-0.2,2.4-0.6,3.9c-0.8,3-3.5,8.5-4,9.2c-0.5,0.7-1.1,1.8-1.3,3c-0.3,1.2-0.3,2.4-0.3,2.9v0.3h-1.6   c0-0.3,0-1.1,0.1-2.7c0.2-2.1,1.7-3.8,2.4-5.1c1-1.8,1.8-3.7,2.3-5.3c0.7-2.1,1.6-4.1,1.6-5.9c0-1.4-0.7-3.5-1.4-4   c0,0-0.2,1.8-0.4,2.3c-0.4,1.6-1.1,2.4-2.8,6.7c-1,2.7-1.5,5.5-1.7,7.2c-0.2,1.2-0.3,1.6-1,2.3c-0.7,0.7-1.7,0.4-1.9,1.2   c-0.2,0.8,0.4,2.3,0.8,3.2h-1.9c-0.2-0.7-0.4-1.9-0.4-3c0-1.5,0.3-2.2,0.3-2.2s1.1,0.1,1.7-0.3c0.6-0.4,0.3-0.7,0.5-1.3   c0.3-0.6,0.6-3,1.9-6.3c1.3-3.3,3.3-8.5,3.3-8.5l0,0l0,0c0,0-0.8-1.4-1.4-2.7c-0.5-1-0.5-2.2-0.5-2.8c0-0.1,0-0.2,0-0.2l0,0l0-0.1   c0,0-1.3-1.1-1.9-1.7c-0.6-0.6-4.2-4.2-4.2-4.2s-1.9,0.7-3.6,1.3c-1.8,0.7-2,0.8-2,0.8l0,0l0,0c0,0,2.5,2.4,4,4.4   c1.5,2,2.5,2,2.9,4.9c0.1,0.5,0.1,1,0.1,1.5c0,2.2-0.6,4.3-1.2,6.3c-0.8,2.5-3.1,5.9-5,9.7c-1.2,2.5-1.5,3.7-1.6,4.3h-1.9   c0.1-0.5,1.4-4.6,2.2-5.9c0.9-1.4,2.4-4.7,4.2-8.7c2.8-6,0.6-9-0.9-10.8c-1.5-1.8-4.2-4.4-4.2-4.4s-8-0.2-10.5-0.2   c-2.5,0-10.4-0.9-10.4-0.9s-0.4,1.2-0.8,2.1c-0.4,0.9-0.7,0.5-1.6,0.9c-0.9,0.4-1.2,0.3-2.5,0.7c-1.3,0.4-3.4,0.6-4.6,1.2   c-1.2,0.6-3.6,1.3-5.2,2.1c-1.5,0.8-2.4,1.3-2.4,1.3s-0.2-2.3,0.2-4.1c0.4-1.8,1.1-3.4,2.7-4.8c1.6-1.4,3-2.3,3-2.3   s-15.7-2.3-17.9-2.4c-2.1-0.1-2,0.3-2,0.3s-2.2,1.5-4.3,3.3c-2.1,1.8-4.6,3.5-4.8,4.1c-0.2,0.6,0,0.7,0.1,1.9   c0.1,1.2,0.7,2.9,0.7,2.9l-9.1,1.1c0,0,0-0.9,0-1.8c0-0.9,0.2-2.9,0.6-4.2c0.4-1.3,0.9-2.5,0.9-2.5l-6.6,0.3c0,0,1.4-6.7,1.9-8.9   c0.5-2.2,2.1-3.5,2.1-3.5s9.1-5.4,11.3-6.8c2.2-1.3,4.1-1.1,4.1-1.1l11.9-0.1l0.1-1.5l-0.5-5.8c0,0-0.7,0.7-1.7,1.2   c-0.6,0.3-3.3,1.1-5.6-0.4c-2.2-1.5-3.1-4.6-3.1-4.6l-4.9-17.8l-3.2-5.3l4.8,0.4c0,0-0.1-0.2-0.2-1.4c-0.1-1.2,0-2.4,0-2.4   s0.4,0,1.5,0.4c1.1,0.4,4,2,4,2s0.2,0,1-0.1c0.8-0.1,6.8,0,14,2.7c7.3,2.7,12.9,11.7,12.9,11.7s0.6,0.6,2,1.1c1.4,0.5,3.3,0,3.3,0   s-0.6-4.7-0.8-6.9c-0.2-2.2-0.5-4.3-0.5-4.3s-12.6-5.5-13.8-6.1c-1.2-0.6-1.4-2.1-1.4-2.1l0.4-16.5c0,0-1.7,1.1-3.3-0.1   c-0.8-0.6-1.3-1.7-1.2-2.8c0.1-1.1,1-2.5,2.4-2.7c1.4-0.2,2.3,0.3,2.3,0.3s0.9-1.7,1.8-2.2c0.9-0.5,2.4-0.7,3.4-0.4   c1,0.3,1.2,0.8,1.2,0.8l1.6-0.3c0,0,0.6-3.9,1.3-5.3c1-1.8,2.1,0.3,2.1,0.3l1.7,4.6l30-0.3l10.6,4.6l-11.3,4H243   c0,0-1.2,5.7-1.6,6.4c-0.4,0.7-0.7,0.8-1.3,0.1c-0.6-0.7-3.2-6.2-3.2-6.2l0.1,1.8l0.8,10l8,3c0,0-1.1-1-1.9-3.9   c-0.6-2.2-0.7-3.4-0.3-5c0.8-3.1,3.6-4.4,7.5-4.9c3.8-0.5,7.5,0.6,8,0.7c0.5,0.1,0.5,0.4,0.5,1.2c0,0.8,0.1,2.6-0.1,5.1   c-0.2,2.5-0.8,3.2-1.4,4c-0.6,0.8-0.4,1-0.3,1.9c0.1,0.9,0.8,1.8,0.8,1.8l12.1-1.5c0,0,0.5,2.4,1.1,6.7c0.6,4.2,1.2,10.5,0.1,15.2   c-0.8,3.5-1.8,5.7-4.1,9.3c0,0,4.3,0,6.1-0.1c1.8-0.1,3.5,0.2,6.1,1.2c2.5,1,7.5,4.9,7.5,4.9s4.6-3.2,7.3-4.5   c2.6-1.3,4.7-1.4,8.4-1.1c4.1,0.3,5.9,4.9,6.1,7.2c0.2,2.2,0,7.1,0.3,9.6c0.3,2.5,3.1,3.7,3.1,3.7s-1.5,1.1-2.5,1.4   c-1,0.3-2.3,0.2-2.3,0.2s0.4,1.6,0.5,2.5c0.1,0.9-0.4,3.6-0.9,2.9c-0.5-0.7-1-1.1-2.1-1.8c-1.1-0.7-1.4-0.9-1.4-0.9   s-0.1,1.4-0.3,2.3c-0.2,0.9-0.2,1-0.8,2.4c-0.6,1.4-1.3,1.8-1.3,1.8s0-0.3-0.3-1.1c-0.3-0.8-0.8-1.8-1.8-3c-1-1.2-1.8-1.5-3.1-3.6   c-1.3-2.1-1-4.1-1-6.3s0.9-4.3,0.9-5.6c0-1-1.2-1.2-1.7-1c-0.5,0.2-1.8,0.6-2.6,1.4c-0.8,0.8-1.1,1.4-2.1,3.3c-1,1.9-1.4,3.2-2,6.9   c-0.6,3.6,1.2,7.9,1.9,9.3c0.7,1.4,2.8,3.6,2.8,3.6s-5.7,19.3-6.5,20.4c-0.7,1.1-1.7,1.2-1.7,1.2s0.1,0.5,0.4,1.3   c0.3,0.7,1.1,2.2,1.3,2.5H283.7 M195.9,270.6l5.2-0.9l0-0.1l0,0c0,0-0.2-2.4-0.4-3.1l0-0.1c0-0.8,1-1.9,1-1.9l10.6-8   c0,0,4.1,0.6,9.7,1.5c5.6,0.9,11.3,1.2,11.3,1.2l0.8-1l0.2-12.2h0l0-0.1c0,0-1.9-0.2-4.4,0.1c-2.5,0.4-2.7,0.2-5.3,1   c-2.6,0.7-3.4,1.5-3.4,1.5l-0.5,2.4l-11.4,1.2l-11.8,11.1h0.1l-0.1,0.1h1.2c-0.2,0.2-0.6,0.6-1.2,1.4c-0.7,1-0.7,1-1.1,2.5   C196,268.8,195.9,270.5,195.9,270.6L195.9,270.6L195.9,270.6 M227.3,269.8c0,0,2.9-1.7,5.8-2.6c3-0.9,5-1.1,6.1-1.6   c1.1-0.5,1.5-0.5,1.7-1.4c0.1-0.4,0.1-1,0.1-1.8c0-0.5,0-1.1,0-1.7c0-0.6,0-1.2,0-1.9c0.1-2.4,0.3-3.3,1.2-5.2   c0.9-1.9,1.1-4.2,1.1-5.3v0v0c0-1.1-0.2-2.4-0.2-2.4l-7.2,0.4c0,0-0.2,8.1-0.5,9.9c-0.3,1.9-0.1,3.1-0.6,4.2   c-0.5,1.1-0.9,1.5-1.6,1.9c-0.7,0.4-2.1,0.9-3.6,2.5c-1.5,1.6-1.6,1.6-2,3.1C227.3,269.4,227.3,269.8,227.3,269.8L227.3,269.8   L227.3,269.8 M191.3,262.4l6.6-0.4l0-0.1l0,0l-0.9-5.4c0.1-0.1,2.2-1.7,4-3c1.9-1.4,4.8-2.5,5.7-2.9c0.9-0.4,6.2-0.4,7.2-0.4   c1,0,5.2,0.2,5.2,0.2l1.1-4.7h0l0-0.1l-12.3,0.1c0,0-11.3,5.5-12.7,6.6c-1.4,1.1-2,2.2-2.5,3.6   C192.3,257.5,191.3,262.3,191.3,262.4L191.3,262.4L191.3,262.4 M298.4,257.8c1.8,2.1,3.5,3.9,3.5,3.9s0.5-0.6,0.5-1.7   c0-0.8,0.1-0.9,0.1-1.3c0-0.2,0-0.5-0.1-0.9c-0.2-1-0.4-1.6-0.5-1.8c0.2,0.1,0.9,0.4,1.9,0.8c1.2,0.5,2.4,0.8,2.4,0.8l0-0.1l0,0   c0,0,0-0.5-0.5-1.9c-0.3-0.8-0.5-1.4-0.6-1.8c0.2,0.2,0.6,0.6,1.6,0.7c1.7,0.2,1.7,0.4,2.4,0.3c0.7-0.1,1.1-0.1,1.1-0.1l-0.1-0.1   l0.1,0c0,0-1.6-1.3-2.4-2.9c-0.5-1.1-0.7-2.8-0.7-4.5c0-0.8,0-1.5,0.1-2.2c0.1-0.7,0.1-1.4,0.1-2.1c0-1.8-0.4-3.7-1.7-5.1   c-1.9-1.9-5.1-2.7-7.9-2c-2.8,0.7-5.2,2.6-6.8,3.7c-1.6,1.1-4.3,3-4.3,3s-2.4-3.1-5.7-5.1c-3.4-2-5.2-2.2-6.7-2.3   c-1.5-0.1-2.4-0.2-2.4-0.2l0.1,0.1l-0.1,0c0,0,4.4,2,6.1,5.8c1.8,3.8,2.1,6.2,2.1,6.2s3.8,0,5.7-0.6c1.9-0.6,4.6-1.9,7.2-2.7   c2.6-0.8,3.6-1.1,4.6-0.3c0.7,0.6,1.1,1.4,1.1,2.3c0,0.3-0.1,0.6-0.2,1c-0.5,1.2-1.5,3.8-1.6,5.3c0,0.2,0,0.4,0,0.6   C296.6,254.3,296.9,255.9,298.4,257.8 M203.6,253.7c-1.2,0.9-4.3,3.2-4.3,3.2v0.5l0.4,2.1l8-7.3   C207.7,252.3,204.8,252.8,203.6,253.7 M243.4,253.3l3.1,3.8l2.4-5.2l5.1,5c0,0,0.5-4.9,1.2-8.1c0.6-2.8,2-5.5,2-6.1   c0-0.1,0-0.2-0.1-0.2c-0.5,0.1-2.2-0.3-2.7-0.5c0.3,0,1.2-0.2,1.8-0.4c0.9-0.2,3.6-1.6,5.8-3.2c2.2-1.6,2.7-3.6,2.7-3.6l0,0l0,0   c0,0-0.6-0.6-1.7-1.4c-1.1-0.7-1.4-0.6-1.4-0.6s-0.4,0.6-1,1.4c-0.6,0.7-1.4,1-3.1,2c-1.7,1-3.5,1-3.5,1l-9.7,7.6l0,0l0,0   c0,0,0.2,1.5,0.2,3.1c0,0.5,0,1.1-0.1,1.6C244.3,251.6,243.4,253.2,243.4,253.3L243.4,253.3L243.4,253.3 M257.8,245.7   c0,0,1.8,0.6,5.5,1.1c3.7,0.5,6.1,0.5,6.1,0.6c0,0.1,0,0.1,0-0.1c0-0.5-0.1-3-1.7-6c-0.4-0.7-2.8-3.9-2.8-3.9s-2.7,2.4-4.3,3.3   c-1.3,0.7-2.1,1.4-2.1,1.4L257.8,245.7L257.8,245.7L257.8,245.7 M266.2,235.8c0,0,2.9,4.1,3.5,6.2c0.7,2.1,1.3,5.3,1.3,5.3h6.7   l0-0.1h0c0,0-0.2-4.1-1.8-6.4c-1.5-2.3-4.2-4.8-5.8-5.2C268.6,235.2,266.2,235.7,266.2,235.8L266.2,235.8L266.2,235.8 M221,247.3   c0,0,3.4-1.2,6.7-2c3.4-0.7,6.6-0.2,6.6-0.2l0-0.1h0c0,0,0-0.6-0.3-1.7c-0.1-0.4-0.1-0.6-0.1-0.8c0-0.4,0.1-0.5,0.1-0.5l0,0l0-0.1   c0,0-3-0.1-6,0.2c-3,0.4-5.2,0.7-5.2,0.7s-0.6,0.4-1.1,1.9C221.3,246.3,221,247.3,221,247.3L221,247.3L221,247.3 M235.4,243.2   c0.2,1,0.3,1.7,0.3,1.7h7.7v-0.9v-0.1l-5.4-4.1l-2.7,1.4c0,0,0,0.2,0,0.5C235.3,242.2,235.3,242.7,235.4,243.2 M239.4,239l5.1,4.1   l9.1-6.7c0,0,0.6-0.4,1.7-0.5c1.1-0.1,2.2-1,3.7-2c1.3-0.9,1.4-1.8,1.4-2l0-0.1c0,0-1.2-1.6-1.9-2.7c-0.6-1.1-1.9-2.6-1.9-2.6   s0,0-1,0.4c-1,0.4-4.9,2.2-9.1,5.1C242.4,234.9,239.4,239,239.4,239L239.4,239L239.4,239 M224.1,241.5c0,0,3.2-0.4,5.8-0.5   c2.6-0.1,4.6-0.5,4.6-0.5l3.3-1.9c0,0,0.7-0.7,2-2.2c1.2-1.5,4-3.7,4-3.7l0,0l0,0c0,0-0.5-0.2-1-0.6c-0.5-0.4-1-1.2-1.6-2.9   c-0.2-0.6-0.3-1-0.3-1.2c0-0.4,0.1-0.5,0.1-0.5c0-0.1,0-0.1-0.2,0.1c-0.5,0.4-2.4,0-9.1,4.8C225.1,237.2,224.1,241.4,224.1,241.5   L224.1,241.5L224.1,241.5 M221.5,234.4l0.6,6.6c0,0,4.7-6.6,9.2-9.6c4.5-3,6.3-3.7,8.1-4.4c1.7-0.6,3.4-0.7,3.4-0.7l-0.1,0l0.1,0   l-3.7-1.1c0,0-7.8,1.9-11.2,4.2C224.5,231.7,221.5,234.4,221.5,234.4L221.5,234.4L221.5,234.4 M211.3,231c0,0,0.7,3.8,3.3,4.9   c1.2,0.5,2.7,0.4,4.1-0.9c1-0.9,1.1-3,1.1-4c0-0.4,0-0.6,0-0.6s-1.2-0.2-4,0C213.1,230.6,211.3,230.9,211.3,231L211.3,231   L211.3,231 M252.5,206.9c0,0,0.4,3,0.7,4.6c0.2,1.4,1.1,6.2,3,10.5c4.5,10.2,9.3,11.9,9.3,11.9s3.5-4,4.9-10.3   c0.3-1.3,0.4-2.8,0.4-4.5c0-6.4-1.7-14.5-1.7-14.5L252.5,206.9L252.5,206.9L252.5,206.9 M221.1,233.2c0,0,4.1-3.7,6.7-5.2   c2.6-1.5,3-1.5,3.9-1.7c0.9-0.2,1.5-0.5,1.5-0.5l0,0l0,0c0,0-1.4-3.4-4-6c-2.2-2.2-4.4-4.1-5.1-4.7c1,0.6,4.8,3,6.4,4.8   c1.9,2.1,4.4,5,4.4,5s2.1-0.4,2.6-0.6c0.5-0.2,0.7-0.4,0.7-0.4l0,0l0,0c0,0-4.4-6.1-7.1-8.2c-3.2-2.6-7.3-4.2-10.3-4.7   c-3-0.5-5.6-0.6-5.6-0.6l0,0.1h0l0.4,4.1c0,0,3,0.4,4.5,1.4c1.2,0.8,2.2,2.1,2.5,3.6c0.1,0.6,0.2,1,0.2,1.4c0,0.7-0.1,1.3-0.5,2.4   c-0.6,1.9-1.1,2.9-1.2,4.5c0,0.3,0,0.8,0,1.2C221,230.7,221.1,233.2,221.1,233.2 M242.6,229.8c0.2,0.9,1.2,1.4,2.2,1.5   c1,0.1,1.5-0.7,3-1.9c1.5-1.1,8.2-4.1,8.2-4.1l0,0l0,0l-1.2-2.9c0,0-8.8,3-10.3,3.6c-1.5,0.6-1.6,0.9-2,1.6   c-0.1,0.3-0.2,0.5-0.2,0.8C242.3,228.8,242.5,229.3,242.6,229.8 M208,217.8l2.9,11.9l5-0.7l0-0.1l0,0l-1.4-12.9c0,0-1.2,0-3.3,0.5   C209.1,216.9,208,217.7,208,217.8L208,217.8L208,217.8 M217.2,228.9l2.7-0.1c0,0,0.1-2.5,0.4-3.2c0.2-0.7,0.7-2.1,1.1-3.9   c0.1-0.5,0.2-1,0.2-1.4c0-1-0.3-1.8-1-2.5c-1.8-1.9-4.7-2-4.7-2l0,0.1h0L217.2,228.9 M246.2,218.3c0.4,2.2,0.7,5.2,0.7,5.2l7.2-2.1   l0,0l0,0c0,0-1.2-3.9-1.6-5.5c-0.4-1.6-0.5-2.7-0.5-2.7L246,214c0,0,0,0.3,0,0.8C246,215.6,246,216.9,246.2,218.3 M204.6,210.7   c0,0,0.5,1.1,1.4,2.1c0.9,1,1.5,3.7,1.5,3.7s0.6-0.5,2.2-1.1s2.5-0.6,3.4-0.7c0.9-0.1,1.2-0.1,1.2-0.1l0-0.1h0l-0.4-4h-1.7   c0,0-1.1-0.5-2.5-1.5c-1.4-1-2-1.2-2-1.2s0,0.2,0,0.5c0,0.4,0.1,0.9,0.3,1.4c0.4,0.7,0.6,1.5,0.7,1.8c-0.1-0.1-0.3-0.3-1.2-0.6   C206.3,210.5,204.6,210.6,204.6,210.7L204.6,210.7L204.6,210.7 M245.7,212.5l5.8-0.9l0-0.1l0,0l-1-6.2l6.4-0.7l0,0l0,0   c0,0-0.7-1.2-0.9-1.9c-0.1-0.4-0.3-0.6-0.3-0.9c0-0.2,0.1-0.5,0.4-0.9c0.6-0.9,1.5-1.6,1.7-3.2c0.2-1.6,0.4-3.2,0.4-4.2v0v0   c0-1-0.3-1.5-0.3-1.5s-1.9-0.9-3.8-1c-2-0.1-2.7-0.1-3.6,0c-0.9,0.1-1.7,0.6-1.7,0.6l0,0l0,0c0,0,1.9,1.7,2,4.6   c0,0.6,0.1,1.3,0.1,2.1c0,1.5-0.2,3.1-1.2,4.6c-1,1.6-2.2,2.7-3,4.7C246,209.5,245.7,212.5,245.7,212.5L245.7,212.5L245.7,212.5    M230.6,203.9c0,1.5,0.6,1.5,0.6,1.5l13.2,5.5l0-0.1l0,0l0-0.3c0-0.9,0.4-1.3,0.6-2.3c0.3-1.3,1.2-2.7,1.2-2.7l0,0l0,0   c0,0-7.4-3.1-8.4-3.5c-1.8-0.7-2-1-2-1.1v0l0,0l-0.5-12.8c0,0,0.5-0.6,0.8-1.1c0.2-0.3,0.2-0.8,0.2-1.3c0-0.4,0-0.8-0.1-1   c-0.1-0.6-0.7-1.9-1.3-2.3c-0.6-0.4-1.3-0.7-2.6-0.4c-1.3,0.3-2.3,1.7-2.4,2.4c-0.1,0.3-0.1,0.6-0.1,0.9c0,1.9,1,3,1.1,3   c0,1-0.5,13.2-0.5,15.3V203.9 M245.1,198.3c0.5,3.1,2.5,4.8,3,4.5c0.5-0.2,1.2-1,1.4-3.6c0-0.6,0-1.1,0-1.6c0-1.6-0.1-2.5-0.4-3.3   c-0.5-1.8-1.9-2.4-1.9-2.4s-2.3,0.9-2.3,4.6C244.9,197.1,245,197.7,245.1,198.3 M237.3,186.9l1.1,0.2l2.2,5.8l0.9-6.2l29.3-0.2   l8.6-2.6l-0.1,0l0.1,0l-8.3-2.5l-29.5,0.9l-2.1-6l-0.9,6.1l-1.8,0.5l0,0l0,0c0.2,0.4,0.3,0.3,0.6,1.7c0.1,0.3,0.1,0.7,0.1,1   C237.4,186.2,237.3,186.8,237.3,186.9L237.3,186.9L237.3,186.9 M226.1,185.6c0.1,0.6,0.7,1.2,1.3,1.1c0.9-0.1,1.5-0.6,1.5-1.6   l0-0.1c-0.1-1-0.6-1.6-1.4-1.5c-0.6,0.1-0.8,0.2-1,0.5c-0.2,0.2-0.4,0.5-0.4,1.1C226.1,185.3,226.1,185.4,226.1,185.6" />
      <path id="XMLID_223_" d="M210.6,219.6c0-0.8,0.6-1.4,1.3-1.4c0.8,0,1.4,0.6,1.4,1.4c0,0.7-0.6,1.3-1.4,1.3   C211.2,220.9,210.6,220.3,210.6,219.6" />
   </g>
   <path stroke-width="10" stroke="black" d="M157,296 a60,60 0 0,0 184,0" fill="black" />
   <g name="yellow hand and book" id="g392">
      <path id="XMLID_101_" class="st2" d="M229.6,342.2l-2.6,0.2c0,0-1.8,0.2-1.7,2.2c0,1.3,0.9,1.7,1.8,1.7c0.7,0,2.8,0,2.8,0l0.2,2.7           c0,0,0.2,1.5,1.5,1.5c1.3,0,1.7-0.6,1.8-1.4c0.1-0.9,0-3.1,0-3.1s1.6-0.1,2.5-0.2c0.9-0.1,1.9-1,1.6-2.4c-0.2-1.2-1.1-1.5-2.1-1.5           c-0.9,0-2,0-2,0s-0.1-1.6-0.2-2.7c-0.1-1.4-1.4-1.6-2.1-1.5c-0.7,0.1-1.6,0.5-1.5,1.8C229.5,340.7,229.6,342.2,229.6,342.2z" />
      <path id="XMLID_102_" class="st2" d="M254.3,336.4c0,0,13.1-3.7,15.1-4.3c1.9-0.6,2.3-1.2,2.3-1.2l16.2-0.6c0,0,1.9,2.5,2.1,5.2           c0.2,2.7,0.3,4.6,0.3,4.6s-3.5,1.5-6.4,4.3c-2.9,2.7-7.2,5.6-9.3,7.5c-2.1,1.9-3.3,2.3-4.4,2.9c-1.2,0.6-4.8,1-4.8,1l5-3.2           c0,0-0.1-1.3-1.2-0.6c-1.1,0.8-5.5,3.1-6.3,3.5c-0.8,0.4-4.8,1.6-5.7,2c-0.9,0.4-3.1,0.8-3.1,0.8s-1-0.1-1.1-0.6           c-0.1-0.4-0.8-0.4-0.1-1c0.7-0.6,4.8-1.7,6.3-2.3c1.5-0.7,4.3-2.1,6-3.1c1.7-1,2.7-1.2,2.9-1.7c0.2-0.4-0.1-1.4-2-0.2           c-1.9,1.2-6.4,3.4-7.1,3.8c-0.7,0.3-3.4,1.2-5.1,1.6c-1.7,0.3-2,0.8-3.1,0.7c-1.1-0.1-1.7,0-1.3-0.7c0.3-0.7,3.2-1.7,4.8-2.2           c1.6-0.6,4.5-2.1,6.2-3c1.7-0.9,3.3-1.5,3.8-2c0.4-0.4,1-0.6,1-1c0-0.4-0.7-0.2-2.7,0.8c-2,1-6.1,2.8-7.5,3.5           c-1.4,0.8-4.8,1.6-5.4,2.1c-0.7,0.6-1.8,0.8-2.2,0.4c-0.4-0.3-1-0.8-0.6-1.4c0.4-0.7,2.8-1.6,4.8-2.4c2-0.9,5.2-2.7,7.4-4.2           c2.2-1.5,4.5-3.4,5.9-4.9c1.3-1.4,2.1-1.8,2.6-2.3c0.4-0.6-0.4-0.9-1.4-0.8c-1,0.1-4.3,0.9-6,0.8c-1.7-0.1-2.1,0.2-3.3,0.1           c-1.2-0.1-1.7,0-2.4-0.7C253.6,337.2,254.3,336.4,254.3,336.4z" />
      <path id="XMLID_103_" class="st2" d="M291.3,342.5c0,0-1.6,0.7-2.7,1.3c-1.1,0.7-2.6,1.8-2.6,1.8s0.1,3.7,0.7,5.9           c0.6,2.2,0.7,2.7,1.2,3.8c0.7,1.5,1.3,1.8,2,1.8s0.8-2.4,1-5.4C291.1,348.6,291.3,342.5,291.3,342.5z" />
      <path id="XMLID_104_" class="st2" d="M290.1,328.1c0,0,2.4,7.2,2.8,11.3c0.3,4.1,0.3,8.2,0,10.7c-0.3,2.6-0.3,5.4-0.3,5.4           s17.4-7.5,23.2-10.7c5.8-3.2,8.6-5.2,8.6-5.2s-0.7,0.4-2.4,0.4c-1.8,0-5.1-0.6-5.1-0.6s2.7-1.2,6-1.8c3.3-0.6,5.8-1.5,7-2.1           c1.2-0.6,1.5-0.9,2.1-1.7c0.6-0.8,5.1-10,7-20.9c1.3-7.6,0.9-14.7,0.9-14.7l-2.2,0.2c0,0-1.2,2.9-3,4.7c-1.8,1.8-5.5,5.3-5.5,5.3           s0.7,0.2,2.4,0c1.8-0.2,2.8-0.2,2.8-0.2s-3.1,1.4-6.7,2.8c-3.5,1.3-9,3.4-10.9,4.7c-1.9,1.2-3.4,2.1-3.4,2.1s1.8,0.4,2.7,0.4           c0.9,0,1.2,0.7,1.2,0.7s-1.3,0-5.2,1.4c-3.9,1.4-6.4,2.8-8,3.4c-1.6,0.7-2.3,1.2-2.3,1.2s2.5,3.8,2.8,5.8c0.2,2,0.9,3.7,0.4,5.2           c-0.4,1.5-0.9,2.4-0.9,2.4l-0.9,0.4c0,0,0.3-1.4,0.3-3.4c0-2-0.6-3.2-1.8-5.3c-1.2-2.1-2.4-3.5-2.4-3.5s-1.4,0.5-2.9,0.8           c-2.1,0.4-5.7,0.6-5.7,0.6L290.1,328.1z" />
      <path id="XMLID_105_" class="st2" d="M207.8,366.8l-0.2-53.2c0,0-0.4-2.2,2.7-2.4c3.1-0.2,35.9-3.8,35.9-3.8s0.7,0.4,0.4,0.9           c-0.2,0.4-0.6,0.8-1.4,0.8c-0.9,0-34.2,3.9-34.2,3.9s-1.6-0.8-1.6,2.4c0,3.2,0.2,51.7,0.2,51.7l1.8-0.1l0.4-49.5           c0,0-0.4-2.2,2.5-2.5c3-0.3,32.2-3.8,32.2-3.8s0.8,0.1,0.6,0.8c-0.2,0.7-0.6,0.3-2.1,0.7c-1.6,0.3-30.4,3.9-30.4,3.9           s-0.9-0.2-1,1.7c-0.1,1.9-0.2,49.6-0.2,49.6l1.8,1.6l0.2-49.5c0,0-0.6-1.9,3.9-2.2c4.4-0.3,25.6-2.3,25.6-2.3s5-0.6,5.9-3.3           c0.5-1.7,0.3-4-1.4-5.1c-1.8-1.1-1.8-1.7-7.3-1.2c-5.5,0.4-33.8,3.1-33.8,3.1s-3-0.3-2.8,3.5c0.2,3.9,0.2,54.7,0.2,54.7           L207.8,366.8z" />
      <path id="XMLID_106_" class="st2" d="M224.6,319c0,0-0.3,3.7-1.9,5.3c-1.6,1.7-2.5,2.1-3.7,2.1c-1.1,0-1.9,0-1.9,0L217,322           c0,0,0-2.4,2-2.7C221,319.1,224.6,319,224.6,319z" />
      <path id="XMLID_107_" class="st2" d="M238.1,317.7l5.3-0.7l0.1,6.8c0,0-2.7,0.3-4-1c-1.6-1.6-1.3-2-1.5-3.2           C237.8,318.8,238.1,317.7,238.1,317.7z" />
      <path id="XMLID_108_" class="st2" d="M217.1,367.2l0.1,6c0,0,0,1.1,0.8,1.5c0.8,0.4,2.4,0.3,4.1,0.1c1.7-0.2,3.1-0.1,3.1-0.1           s0.7-2.9-1.2-5.1c-1.9-2.2-4-2.7-5-2.7C218,367,217.1,367.2,217.1,367.2z" />
      <path id="XMLID_109_" class="st2" d="M244.2,365l0.4,7.5l-5.2,0.6c0,0-0.3-3.2,0.2-4.7c0.6-1.4,1.3-2.2,1.8-2.6           C241.8,365.5,244.2,365,244.2,365z" />
      <path id="XMLID_110_" class="st2" d="M245.7,317v2.4c0,0,0.5,0.1,1.5-0.2c1.5-0.4,3.2-1.2,3.8-2.1c0.6-0.9,0.3-2.1,0.3-2.5           c0-0.4-0.8,0.7-2,1.1C248.2,316.1,245.7,317,245.7,317z" />
      <path id="XMLID_111_" class="st2" d="M245.9,321.4v11.7c0,0,2.3-0.3,3.2-1c0.9-0.7,1.7,0,2.3-1.7c0.9-2.4,0.2-11.4,0.2-11.4           s-0.6,1-2.3,1.7C247.6,321.4,245.9,321.4,245.9,321.4z" />
      <path id="XMLID_112_" class="st2" d="M246.1,335.2v2c0,0,1.8,0,2.5-0.3c0.8-0.3,2.1-0.8,2.8-1.2c0.7-0.4,0.6-2.8,0.6-2.8           s-1.4,0.8-3,1.3C247.4,334.7,246.1,335.2,246.1,335.2z" />
      <path id="XMLID_113_" class="st2" d="M246.1,339.5v10.4l5.6-2.7V338c0,0-1,0.4-2.5,0.9C247.6,339.4,246.1,339.5,246.1,339.5z" />
      <path id="XMLID_114_" class="st2" d="M246.9,355.8c0,0,0.6,0.6,1.5,1c1,0.4,1.8,0.8,1.8,0.8s-0.1,0.6,0.3,1.1           c0.4,0.6,0.2,0.7,1,0.8c0.8,0.1,1.2-0.1,1.2-0.1l0.3,6c0,0-0.3,0.9-2.2,1.5c-1.9,0.7-3.7,0.8-3.7,0.8L246.9,355.8z" />
      <path id="XMLID_115_" class="st2" d="M247.3,369.7v1.9c0,0,1.8,0,2.4-0.2c0.7-0.2,1.6-0.3,2.1-0.8c0.6-0.4,1.2-0.4,1.3-1.1           c0.1-0.7,0.3-1.3-0.2-1.4c-0.6-0.1-0.9-0.1-1.8,0.6c-0.9,0.7-0.9,1.1-1.9,1.1C248.3,369.7,247.3,369.7,247.3,369.7z" />
      <path id="XMLID_118_" class="st2" d="M243.5,326.4c0,0-2-0.1-3.1-0.4c-1.1-0.3-1.7-0.7-2.9-2.1c-1.2-1.4-2.1-5.5-2.1-5.5l-8.9,0.9           c0,0-0.3,2-0.9,4.2c-0.6,2.2-3,3.4-4.1,4c-1.1,0.6-4.4,1-4.4,1v36.7c0,0,3,0,3.9,0.2c0.9,0.2,1.8,0.4,3.7,2.1           c1.9,1.7,2.9,6.8,2.9,6.8l9.6-0.8c0,0-0.1-0.8-0.1-2.6c0-1.8,0.1-2.5,1.2-4.4c1.1-1.9,6.1-3.7,6.1-3.7L243.5,326.4z M236.4,347.2           c-1,0.2-1.3,0.2-1.3,0.2s-0.1,2.1-0.1,2.9c-0.1,0.8-0.9,2.2-3.1,2.3c-1.4,0.1-3-0.7-3.3-1.9c-0.3-1.2-0.5-2.5-0.5-2.5s-1.4,0-2-0.1           c-2-0.3-2.4-1.9-2.7-3.3c-0.3-1.6,0.7-3.3,1.9-3.6c0.7-0.2,2.6-0.6,2.6-0.6s-0.9-4.3,2.9-4.7c3-0.3,4.1,2.4,4.1,4.3           c0,0,1.8,0.1,2,0.1c0.4,0,2.6,0.8,2.4,3.9C239.1,345.2,238.3,346.8,236.4,347.2z" />
   </g>

   <defs>
      <path stroke-width="1" stroke="orange" fill="none" id="MyPath" d="M 83 251 c 15 240, 320 242, 335 0" />
      <path stroke-width="1" stroke="lime" fill="none" id="TopArch" d="M 113 251 c 15 -208, 260 -210, 275 0" />
   </defs>





   <text  fill="black" font-size="2.5em" letter-spacing="1" >
      <textPath href="#MyPath"  >
      • UNIVERSITAS VILNENSIS •
      </textPath>
   </text>
     <text  fill="black" font-size="2.5em" >
      <textPath href="#TopArch" startOffset="5" textLength="450"  >
      VILNIAUS&#160;&#160;UNIVERSITETAS
      </textPath>
   </text>
     <text fill="black" font-size="2.8em" x="190" y="148" textLength="120">•1579•</text>
     <text fill="black" font-size="2.8em"   y="408">
     <tspan x="50%" dominant-baseline="middle" text-anchor="middle"  dy="1.2em">Vilniaus universiteto</tspan>
     <tspan x="50%" dominant-baseline="middle" text-anchor="middle"  dy="0.8em">Studentų atstovybė</tspan>
     </text>

</svg>
